<svg width="37" height="37" viewBox="0 0 37 37" fill="none" xmlns="http://www.w3.org/2000/svg">
<path d="M28.0877 0.337373C28.1951 0.229695 28.3227 0.144265 28.4631 0.0859748C28.6036 0.0276849 28.7542 -0.00231934 28.9063 -0.00231934C29.0584 -0.00231934 29.209 0.0276849 29.3494 0.0859748C29.4899 0.144265 29.6175 0.229695 29.7249 0.337373L36.6624 7.27487C36.7701 7.38228 36.8555 7.50987 36.9138 7.65034C36.9721 7.79082 37.0021 7.94141 37.0021 8.0935C37.0021 8.24558 36.9721 8.39618 36.9138 8.53665C36.8555 8.67712 36.7701 8.80472 36.6624 8.91212L13.5374 32.0371C13.4264 32.1473 13.2943 32.2338 13.1489 32.2915L1.58641 36.9165C1.37629 37.0006 1.14611 37.0212 0.924391 36.9757C0.702677 36.9302 0.499186 36.8207 0.339146 36.6606C0.179107 36.5006 0.0695553 36.2971 0.0240743 36.0754C-0.0214067 35.8537 -0.000817342 35.6235 0.0832898 35.4134L4.70829 23.8509C4.76594 23.7055 4.85247 23.5733 4.96266 23.4624L28.0877 0.337373ZM25.9162 5.781L31.2188 11.0836L34.2089 8.0935L28.9063 2.79094L25.9162 5.781ZM29.5839 12.7185L24.2813 7.41594L9.25004 22.4472V23.1247H10.4063C10.7129 23.1247 11.007 23.2466 11.2239 23.4634C11.4407 23.6802 11.5625 23.9743 11.5625 24.281V25.4372H12.7188C13.0254 25.4372 13.3195 25.5591 13.5364 25.7759C13.7532 25.9927 13.875 26.2868 13.875 26.5935V27.7497H14.5526L29.5839 12.7185ZM7.01154 24.6857L6.76642 24.9308L3.23291 33.7669L12.069 30.2334L12.3141 29.9882C12.0935 29.9058 11.9034 29.7581 11.7691 29.5647C11.6348 29.3713 11.5627 29.1415 11.5625 28.906V27.7497H10.4063C10.0996 27.7497 9.80554 27.6279 9.5887 27.4111C9.37186 27.1943 9.25004 26.9002 9.25004 26.5935V25.4372H8.09379C7.85833 25.4371 7.62854 25.365 7.43514 25.2307C7.24174 25.0964 7.09395 24.9063 7.01154 24.6857Z" fill="black"/>
</svg>
