<svg width="29" height="26" viewBox="0 0 29 26" fill="none" xmlns="http://www.w3.org/2000/svg">
<path d="M14.5 13C16.3399 13 18.1045 12.3284 19.4056 11.1328C20.7066 9.93726 21.4375 8.31575 21.4375 6.625C21.4375 4.93425 20.7066 3.31274 19.4056 2.11719C18.1045 0.92165 16.3399 0.25 14.5 0.25C12.6601 0.25 10.8955 0.92165 9.59445 2.11719C8.29341 3.31274 7.5625 4.93425 7.5625 6.625C7.5625 8.31575 8.29341 9.93726 9.59445 11.1328C10.8955 12.3284 12.6601 13 14.5 13ZM19.125 6.625C19.125 7.75217 18.6377 8.83317 17.7704 9.6302C16.903 10.4272 15.7266 10.875 14.5 10.875C13.2734 10.875 12.097 10.4272 11.2296 9.6302C10.3623 8.83317 9.875 7.75217 9.875 6.625C9.875 5.49783 10.3623 4.41683 11.2296 3.6198C12.097 2.82277 13.2734 2.375 14.5 2.375C15.7266 2.375 16.903 2.82277 17.7704 3.6198C18.6377 4.41683 19.125 5.49783 19.125 6.625ZM28.375 23.625C28.375 25.75 26.0625 25.75 26.0625 25.75H2.9375C2.9375 25.75 0.625 25.75 0.625 23.625C0.625 21.5 2.9375 15.125 14.5 15.125C26.0625 15.125 28.375 21.5 28.375 23.625ZM26.0625 23.6165C26.0602 23.0938 25.7064 21.5212 24.1385 20.0805C22.6308 18.695 19.7933 17.25 14.5 17.25C9.20438 17.25 6.36925 18.695 4.8615 20.0805C3.29363 21.5212 2.94213 23.0938 2.9375 23.6165H26.0625Z" fill="black"/>
</svg>
